<?xml version="1.0" encoding="UTF-8"?>
<svg width="17px" height="22px" viewBox="0 0 17 22" version="1.1" xmlns="http://www.w3.org/2000/svg" xmlns:xlink="http://www.w3.org/1999/xlink">
    <!-- Generator: Sketch 48.1 (47250) - http://www.bohemiancoding.com/sketch -->
    <title>Fill 1@2x</title>
    <desc>Created with Sketch.</desc>
    <defs></defs>
    <g id="Document" stroke="none" stroke-width="1" fill="none" fill-rule="evenodd" transform="translate(-205.000000, -466.000000)">
        <g id="Group-12-Copy-4" transform="translate(194.000000, 445.000000)" fill="#E51A2D">
            <g id="Page-1" transform="translate(11.000000, 21.000000)">
                <path d="M8.20735122,16.0989549 C7.94099024,16.0989549 7.71219512,16.1231053 7.62926829,16.1472556 L7.62926829,19.6974436 C7.71219512,19.7216767 7.93286341,19.7216767 8.07815122,19.7216767 C9.20015122,19.7296992 9.93471707,19.1178346 9.93471707,17.8217368 C9.93471707,16.694609 9.27287805,16.0989549 8.20735122,16.0989549 Z M3.43872683,16.0908496 C3.19658049,16.0908496 2.98536585,16.1069774 2.90243902,16.1311278 L2.90243902,17.7332406 C3.06829268,17.7573083 3.16432195,17.7653308 3.34999512,17.7653308 C4.00379024,17.7653308 4.40739512,17.4353308 4.40739512,16.8878947 C4.40739512,16.3887594 4.06018049,16.0908496 3.43872683,16.0908496 Z M16.2536585,13.8120301 L0.746341463,13.8120301 L0.746341463,5.12781955 L5.14146341,5.12781955 L5.14146341,0.744360902 L16.2536585,0.744360902 L16.2536585,13.8120301 Z M15.3414634,16.2105263 L13.2682927,16.2105263 L13.2682927,17.4511278 L15.1756098,17.4511278 L15.1756098,18.443609 L13.2682927,18.443609 L13.2682927,20.593985 L12.0243902,20.593985 L12.0243902,15.2180451 L15.3414634,15.2180451 L15.3414634,16.2105263 Z M10.3593854,19.9792256 C9.78627805,20.4542105 8.87690244,20.6795865 7.81145854,20.6795865 C7.17375122,20.6795865 6.71707317,20.639391 6.38536585,20.5991128 L6.38536585,15.2777594 C6.88292683,15.205391 7.45628293,15.1570075 8.06969268,15.1570075 C9.11092195,15.1570075 9.80385854,15.3502105 10.3203268,15.7366165 C10.8854732,16.1552782 11.2479463,16.8234662 11.2479463,17.7814586 C11.2479463,18.8199248 10.8760195,19.5364962 10.3593854,19.9792256 Z M5.16153171,18.1356917 C4.74192195,18.5220977 4.08447805,18.7072782 3.3579561,18.7072782 C3.19658049,18.7072782 3.06829268,18.6991729 2.90243902,18.6750226 L2.90243902,20.593985 L1.74146341,20.593985 L1.74146341,15.2697368 C2.07317073,15.205391 2.66054146,15.1570075 3.41119512,15.1570075 C4.16989268,15.1570075 4.71422439,15.3019925 5.07752683,15.5917143 C5.43253659,15.8654737 5.66033659,16.3163083 5.66033659,16.8476165 C5.66033659,17.3790075 5.49257561,17.837782 5.16153171,18.1356917 Z M4.79084878,0 L0,4.72503759 L0,22 L17,22 L17,0 L4.79084878,0 Z" id="Fill-1"></path>
            </g>
        </g>
    </g>
</svg>