<?xml version="1.0" encoding="UTF-8"?>
<svg width="17px" height="23px" viewBox="0 0 17 23" version="1.1" xmlns="http://www.w3.org/2000/svg" xmlns:xlink="http://www.w3.org/1999/xlink">
    <!-- Generator: Sketch 48.1 (47250) - http://www.bohemiancoding.com/sketch -->
    <title>Page 1@2x</title>
    <desc>Created with Sketch.</desc>
    <defs></defs>
    <g id="Document" stroke="none" stroke-width="1" fill="none" fill-rule="evenodd" transform="translate(-205.000000, -285.000000)">
        <g id="Group-12-Copy" transform="translate(194.000000, 265.000000)" fill="#247B4B">
            <path d="M27,34 L12,34 L12,25.3607595 L16.2513369,25.3607595 L16.2513369,21 L27,21 L27,34 Z M23.6537187,41 C22.9869636,41 22.32887,40.8184653 22,40.6368423 L22.2683283,39.5561946 C22.614698,39.7377293 23.1687657,39.919264 23.731495,39.919264 C24.3376199,39.919264 24.6580052,39.6685396 24.6580052,39.2881727 C24.6580052,38.9250151 24.3809271,38.7176225 23.6796147,38.4754585 C22.7098855,38.1296866 22.0692032,37.5937312 22.0692032,36.7464221 C22.0692032,35.7521732 22.9090106,35 24.2769897,35 C24.9436564,35 25.4199479,35.1297307 25.7662292,35.293968 L25.4718282,36.3487579 C25.2468072,36.2363246 24.8224844,36.0720873 24.2597552,36.0720873 C23.6882761,36.0720873 23.411198,36.3400209 23.411198,36.6339889 C23.411198,37.005707 23.731495,37.1700325 24.493526,37.4553518 C25.5237969,37.8357186 26,38.3717622 26,39.1931252 C26,40.1699884 25.2554686,41 23.6537187,41 Z M23,41 L19,41 L19,35 L20.4634146,35 L20.4634146,39.9090909 L23,39.9090909 L23,41 Z M16.4853383,41 L15.9603633,39.9046364 C15.7452255,39.4860909 15.6075689,39.1818182 15.4439974,38.8181818 L15.4268672,38.8181818 C15.3063408,39.1818182 15.1599874,39.4860909 14.9707644,39.9046364 L14.4973558,41 L13,41 L14.6781454,37.9643636 L13.0602632,35 L14.566228,35 L15.0739849,36.0944545 C15.2460776,36.4595455 15.375213,36.7272727 15.5128696,37.0909091 L15.5300877,37.0909091 C15.6678321,36.7272727 15.7796616,36.4417273 15.9259272,36.0944545 L16.4164661,35 L17.9139097,35 L16.2788095,37.9287273 L18,41 L16.4853383,41 Z M15.8323122,20 L11,24.9398985 L11,43 L28,43 L28,20 L15.8323122,20 Z" id="Page-1"></path>
        </g>
    </g>
</svg>