<?xml version="1.0" encoding="UTF-8"?>
<svg width="18px" height="17px" viewBox="0 0 18 17" version="1.1" xmlns="http://www.w3.org/2000/svg" xmlns:xlink="http://www.w3.org/1999/xlink">
    <!-- Generator: Sketch 48.1 (47250) - http://www.bohemiancoding.com/sketch -->
    <title>Page 1@2x</title>
    <desc>Created with Sketch.</desc>
    <defs></defs>
    <g id="Document" stroke="none" stroke-width="1" fill="none" fill-rule="evenodd" transform="translate(-205.000000, -350.000000)">
        <path d="M206.125164,364.999836 L221.875164,364.999836 L221.875164,351.499836 L206.125164,351.499836 L206.125164,364.999836 Z M221.875164,350.375 L206.125164,350.375 C205.503345,350.375 205,350.879327 205,351.499836 L205,364.999836 C205,365.620018 205.503345,366.125 206.125164,366.125 L221.875164,366.125 C222.495345,366.125 223,365.620018 223,364.999836 L223,351.499836 C223,350.879327 222.495345,350.375 221.875164,350.375 Z M219.625164,363.875 L220.75,363.875 L220.75,362.749836 L220.75,360.500164 L220.75,357.125 L216.25,360.500164 L210.624836,356.000164 L207.25,359.375 L207.25,360.500164 L207.25,362.749836 L207.25,363.875 L208.375164,363.875 L219.625164,363.875 Z M214.690873,354.699255 C214.689564,355.563909 215.390255,356.265255 216.254255,356.265255 C217.119236,356.265909 217.8196,355.565218 217.820255,354.701545 L217.820255,354.699255 C217.820582,353.834927 217.120873,353.134236 216.256218,353.133909 C215.391891,353.1326 214.690873,353.833618 214.690873,354.697291 L214.690873,354.699255 Z" id="Page-1" fill="#FF9632"></path>
    </g>
</svg>