<?xml version="1.0" encoding="UTF-8"?>
<svg width="17px" height="22px" viewBox="0 0 17 22" version="1.1" xmlns="http://www.w3.org/2000/svg" xmlns:xlink="http://www.w3.org/1999/xlink">
    <!-- Generator: Sketch 48.1 (47250) - http://www.bohemiancoding.com/sketch -->
    <title>Page 1@2x</title>
    <desc>Created with Sketch.</desc>
    <defs>
        <polygon id="path-1" points="0 0 17 0 17 22 0 22"></polygon>
    </defs>
    <g id="Document" stroke="none" stroke-width="1" fill="none" fill-rule="evenodd" transform="translate(-205.000000, -406.000000)">
        <g id="Page-1" transform="translate(205.000000, 406.000000)">
            <mask id="mask-2" fill="white">
                <use xlink:href="#path-1"></use>
            </mask>
            <g id="Clip-2"></g>
            <path d="M8.63251707,16.414812 C7.922,16.414812 7.51200976,17.0825038 7.51200976,17.9751579 C7.51200976,18.8813759 7.93568293,19.5151579 8.63251707,19.5151579 C9.33615122,19.5151579 9.73925854,18.8473835 9.73925854,17.9547293 C9.73925854,17.1234436 9.34983415,16.414812 8.63251707,16.414812 Z M3.33506829,16.4352406 C3.10959024,16.4352406 2.90243902,16.4556692 2.8195122,16.4761805 L2.8195122,19.481 C2.90243902,19.5014286 3.10270732,19.5014286 3.2256878,19.5014286 C4.17536585,19.5082932 4.79715122,18.9904662 4.79715122,17.8933609 C4.79715122,16.9394211 4.23689756,16.4352406 3.33506829,16.4352406 Z M16.2536585,13.8120301 L0.746341463,13.8120301 L0.746341463,5.12781955 L5.14146341,5.12781955 L5.14146341,0.744360902 L16.2536585,0.744360902 L16.2536585,13.8120301 Z M13.8722488,19.474218 C14.1933415,19.474218 14.5349171,19.4129323 14.7466293,19.3243534 L14.8969756,20.1419925 C14.7125463,20.2305714 14.2752732,20.3396617 13.7219024,20.3396617 C12.130039,20.3396617 11.3102244,19.344782 11.3102244,18.0365263 C11.3102244,16.4693158 12.4306488,15.6039549 13.8244,15.6039549 C14.3640878,15.6039549 14.774078,15.7061805 14.9585073,15.8083233 L14.7398293,16.6260451 C14.5349171,16.5374662 14.2411073,16.4556692 13.8653659,16.4556692 C13.0455512,16.4556692 12.4033659,16.9530677 12.4033659,17.9751579 C12.4033659,18.8950226 12.9499366,19.474218 13.8722488,19.474218 Z M8.57786829,20.3396617 C7.21828293,20.3396617 6.41215122,19.3107068 6.41215122,17.9955865 C6.41215122,16.6192632 7.30029756,15.5903083 8.653,15.5903083 C10.0672341,15.5903083 10.8392,16.6464737 10.8392,17.9207368 C10.8392,19.4333609 9.93057073,20.3396617 8.57786829,20.3396617 Z M5.18276098,19.7195263 C4.69772195,20.1215639 3.93064878,20.3123684 3.02873659,20.3123684 C2.48904878,20.3123684 2.07317073,20.2782932 1.82439024,20.2441353 L1.82439024,15.7401729 C2.15609756,15.6789699 2.72812683,15.6380301 3.24741463,15.6380301 C4.12867805,15.6380301 4.71389268,15.8015414 5.15108293,16.1286466 C5.62932195,16.4828797 5.93557073,17.0485113 5.93557073,17.8593684 C5.93557073,18.7382932 5.62003415,19.344782 5.18276098,19.7195263 Z M4.82907805,0 L0,4.73554135 L0,22 L17,22 L17,0 L4.82907805,0 Z" id="Fill-1" fill="#325FA6" mask="url(#mask-2)"></path>
        </g>
    </g>
</svg>