<?xml version="1.0" encoding="UTF-8"?>
<svg width="23px" height="22px" viewBox="0 0 23 22" version="1.1" xmlns="http://www.w3.org/2000/svg" xmlns:xlink="http://www.w3.org/1999/xlink">
    <!-- Generator: Sketch 48.1 (47250) - http://www.bohemiancoding.com/sketch -->
    <title>Group 8@2x</title>
    <desc>Created with Sketch.</desc>
    <defs>
        <polygon id="path-1" points="0 0.00035483871 22.4779 0.00035483871 22.4779 21.3294968 0 21.3294968"></polygon>
    </defs>
    <g id="left-bar" stroke="none" stroke-width="1" fill="none" fill-rule="evenodd" transform="translate(-3.000000, -344.000000)">
        <g id="Group">
            <g id="Group-29" transform="translate(2.000000, 0.000000)">
                <g id="Group-11" transform="translate(0.000000, 8.000000)">
                    <g id="Group-8" transform="translate(1.000000, 336.000000)">
                        <g id="Page-1">
                            <mask id="mask-2" fill="white">
                                <use xlink:href="#path-1"></use>
                            </mask>
                            <g id="Clip-2"></g>
                            <path d="M13.5274152,6.80949677 C12.9419606,6.21336774 12.1320818,5.84433548 11.2378697,5.84433548 L11.2364758,5.84433548 C10.3429606,5.84504516 9.53447576,6.21336774 8.94902121,6.80949677 C8.48483939,7.28214194 8.16144545,7.89743226 8.04644545,8.58510968 L14.4292939,8.58510968 C14.3149909,7.89743226 13.991597,7.28214194 13.5274152,6.80949677 Z M11.2364758,4.73369032 L11.2378697,4.73369032 C11.7285364,4.73298065 12.173203,4.53072258 12.4945061,4.20285161 L12.4959,4.20427097 C12.8165061,3.8764 13.0158394,3.42362581 13.0158394,2.92188387 C13.0158394,2.42156129 12.8158091,1.9687871 12.4945061,1.64091613 C12.1725061,1.31375484 11.7278394,1.1107871 11.2364758,1.1107871 C10.7451121,1.1107871 10.2997485,1.31375484 9.97844545,1.64091613 C9.65644545,1.9687871 9.45711212,2.42156129 9.45711212,2.92188387 C9.45711212,3.42291613 9.65644545,3.87498065 9.97844545,4.20285161 C10.2997485,4.53072258 10.7451121,4.73369032 11.2364758,4.73369032 Z M20.4392636,18.4439484 C20.9034455,18.9158839 21.2268394,19.5311742 21.3411424,20.2195613 L14.9582939,20.2195613 C15.0732939,19.5311742 15.3966879,18.9158839 15.8608697,18.4439484 C16.4456273,17.8478194 17.2548091,17.4787871 18.1483242,17.4780774 L18.1497182,17.4780774 C19.0439303,17.4780774 19.8531121,17.8471097 20.4392636,18.4439484 Z M19.4063545,13.2746581 C19.7276576,13.602529 19.9276879,14.0560129 19.9276879,14.5563355 C19.9276879,15.0573677 19.7283545,15.5108516 19.4077485,15.8387226 L19.4063545,15.8373032 C19.0850515,16.1644645 18.6403848,16.3674323 18.1497182,16.3681419 L18.1483242,16.3681419 C17.6569606,16.3681419 17.211597,16.1651742 16.889597,15.8373032 C16.5682939,15.5094323 16.3689606,15.0566581 16.3689606,14.5563355 C16.3689606,14.0560129 16.5682939,13.602529 16.889597,13.2746581 C17.211597,12.9467871 17.6569606,12.744529 18.1483242,12.744529 C18.6396879,12.744529 19.0850515,12.9467871 19.4063545,13.2746581 Z M18.1483242,11.6338839 C17.3558697,11.6338839 16.6379909,11.9617548 16.1187485,12.4897548 C15.5995061,13.0184645 15.278203,13.7494323 15.278203,14.5563355 C15.278203,15.3632387 15.5995061,16.0934968 16.1187485,16.6222065 C16.176597,16.6811097 16.2365364,16.7364645 16.2985667,16.7896903 C15.8476273,17.008271 15.4385061,17.3027871 15.0900212,17.6583355 C14.3066273,18.4560129 13.8222333,19.5581419 13.8222333,20.774529 C13.8222333,21.0811097 14.0661727,21.3294968 14.3672636,21.3294968 L21.9321727,21.3294968 C22.2339606,21.3294968 22.4779,21.0811097 22.4779,20.774529 C22.4779,19.5581419 21.9928091,18.4560129 21.2101121,17.6583355 C20.8602333,17.3020774 20.4511121,17.0068516 19.9987788,16.7896903 C20.0608091,16.7357548 20.1200515,16.6804 20.1779,16.6222065 L20.1779,16.6200774 C20.6964455,16.0913677 21.0184455,15.3618194 21.0184455,14.5563355 C21.0184455,13.7494323 20.6964455,13.0184645 20.1779,12.4897548 C19.6579606,11.9617548 18.9407788,11.6338839 18.1483242,11.6338839 Z M6.61696061,18.4439484 C7.08044545,18.9158839 7.40453636,19.5311742 7.51953636,20.2195613 L1.13668788,20.2195613 C1.25099091,19.5311742 1.57508182,18.9158839 2.03856667,18.4439484 C2.62402121,17.8478194 3.43320303,17.4787871 4.32602121,17.4780774 L4.32811212,17.4780774 C5.22162727,17.4780774 6.03150606,17.8471097 6.61696061,18.4439484 Z M5.58474848,13.2746581 C5.90605152,13.602529 6.10538485,14.0560129 6.10538485,14.5563355 C6.10538485,15.0573677 5.90674848,15.5108516 5.58544545,15.8387226 L5.58474848,15.8373032 C5.26344545,16.1644645 4.81877879,16.3674323 4.32811212,16.3681419 L4.32602121,16.3681419 C3.83465758,16.3681419 3.38999091,16.1651742 3.06799091,15.8373032 C2.74599091,15.5094323 2.54665758,15.0566581 2.54665758,14.5563355 C2.54665758,14.0560129 2.74599091,13.602529 3.06799091,13.2746581 C3.38999091,12.9467871 3.83465758,12.744529 4.32602121,12.744529 C4.81738485,12.744529 5.26274848,12.9467871 5.58474848,13.2746581 Z M4.32602121,11.6338839 C3.53426364,11.6338839 2.81638485,11.9617548 2.29714242,12.4897548 C1.7779,13.0184645 1.45659697,13.7494323 1.45659697,14.5563355 C1.45659697,15.3632387 1.7779,16.0934968 2.29714242,16.6222065 C2.35429394,16.6811097 2.41423333,16.7364645 2.47696061,16.7896903 C2.02532424,17.008271 1.6169,17.3027871 1.26771818,17.6583355 C0.485021212,18.4560129 -6.96969697e-05,19.5581419 -6.96969697e-05,20.774529 C-6.96969697e-05,21.0811097 0.243869697,21.3294968 0.545657576,21.3294968 L8.11056667,21.3294968 C8.41165758,21.3294968 8.65559697,21.0811097 8.65559697,20.774529 C8.65559697,19.5581419 8.17120303,18.4560129 7.38780909,17.6583355 C7.03862727,17.3020774 6.62950606,17.0068516 6.17717273,16.7896903 C6.23850606,16.7357548 6.29844545,16.6804 6.3549,16.6222065 L6.3549,16.6200774 C6.87483939,16.0913677 7.19614242,15.3618194 7.19614242,14.5563355 C7.19614242,13.7494323 6.87483939,13.0184645 6.3549,12.4897548 C5.83565758,11.9617548 5.11847576,11.6338839 4.32602121,11.6338839 Z M10.4886273,14.9033677 L10.4914152,14.9069161 C10.5046576,14.9204 10.517203,14.9338839 10.5290515,14.9494968 L10.5388091,14.9587226 L10.5409,14.9615613 C10.7193242,15.142529 10.9674455,15.2553677 11.2434455,15.2553677 C11.5180515,15.2553677 11.7661727,15.1418194 11.9459909,14.9587226 C12.1258091,14.7770452 12.2366273,14.5236903 12.2366273,14.2447871 C12.2366273,13.9637548 12.1258091,13.7111097 11.9466879,13.5280129 C11.7675667,13.3456258 11.5194455,13.2334968 11.2448394,13.2327871 L11.2434455,13.2327871 C10.9688394,13.2327871 10.7207182,13.3456258 10.5409,13.5287226 C10.3617788,13.7118194 10.2502636,13.9651742 10.2502636,14.2447871 C10.2502636,14.4974323 10.3401727,14.7273677 10.4886273,14.9033677 Z M10.6991121,11.0888516 C10.6991121,10.782271 10.9430515,10.5338839 11.2448394,10.5338839 C11.5452333,10.5338839 11.7898697,10.782271 11.7898697,11.0888516 L11.7898697,12.1966581 C12.1446273,12.2945935 12.4617485,12.4862065 12.7147485,12.7438194 L12.7168394,12.7459484 C13.0939,13.1298839 13.3273848,13.6600129 13.3273848,14.2447871 C13.3273848,14.5847226 13.2479303,14.9069161 13.1078394,15.1929161 L14.0215667,16.1304 C14.2334455,16.3468516 14.2320515,16.6981419 14.0194758,16.9131742 C13.8069,17.1289161 13.462597,17.1282065 13.2507182,16.9110452 L12.3829909,16.0204 C12.0554152,16.2389806 11.6637182,16.3660129 11.2434455,16.3660129 C10.840597,16.3660129 10.4635364,16.2489161 10.1443242,16.0459484 L9.2919303,16.9131742 C9.07865758,17.1303355 8.73365758,17.1303355 8.52038485,16.9131742 C8.30780909,16.6967226 8.30780909,16.3454323 8.52038485,16.128271 L9.40065758,15.2326581 C9.24662727,14.9367226 9.15950606,14.6010452 9.15950606,14.2447871 C9.15950606,13.6585935 9.39299091,13.1277548 9.77005152,12.7438194 C10.0237485,12.4854968 10.3422636,12.2938839 10.6991121,12.1952387 L10.6991121,11.0888516 Z M13.0869303,5.15523871 C13.5392636,5.37381935 13.9483848,5.66904516 14.2982636,6.02459355 C15.0809606,6.82227097 15.5660515,7.92369032 15.5660515,9.14007742 C15.5660515,9.44736774 15.3221121,9.69575484 15.0210212,9.69575484 L7.45541515,9.69575484 C7.15432424,9.69575484 6.91038485,9.44736774 6.91038485,9.14007742 C6.91038485,7.92369032 7.39477879,6.82227097 8.17817273,6.02459355 C8.52735455,5.66975484 8.93577879,5.37452903 9.38671818,5.15665806 C9.32468788,5.10272258 9.26474848,5.04736774 9.2069,4.98846452 C8.68765758,4.45904516 8.36635455,3.7287871 8.36635455,2.92188387 C8.36635455,2.11569032 8.68765758,1.38472258 9.2069,0.856012903 C9.72614242,0.327303226 10.4440212,0.000141935484 11.2364758,0.000141935484 C12.0289303,0.000141935484 12.7461121,0.327303226 13.2660515,0.856012903 C13.784597,1.3840129 14.106597,2.11569032 14.106597,2.92188387 C14.106597,3.72736774 13.784597,4.45762581 13.2660515,4.98633548 L13.2660515,4.98846452 C13.208203,5.04665806 13.1489606,5.10272258 13.0869303,5.15523871 Z" id="Fill-1" fill="#233B4E" mask="url(#mask-2)"></path>
                        </g>
                    </g>
                </g>
            </g>
        </g>
    </g>
</svg>