<?xml version="1.0" encoding="UTF-8"?>
<svg width="17px" height="17px" viewBox="0 0 17 17" version="1.1" xmlns="http://www.w3.org/2000/svg" xmlns:xlink="http://www.w3.org/1999/xlink">
    <!-- Generator: Sketch 48.1 (47250) - http://www.bohemiancoding.com/sketch -->
    <title>Fill 1@2x</title>
    <desc>Created with Sketch.</desc>
    <defs></defs>
    <g id="header" stroke="none" stroke-width="1" fill="none" fill-rule="evenodd" transform="translate(-915.000000, -13.000000)">
        <g id="Group-20" fill="#FFFFFF">
            <g id="Group-18" transform="translate(425.000000, 8.000000)">
                <path d="M498.499734,13.8464233 C498.169529,13.8464233 497.870695,13.7129586 497.654812,13.4965437 C497.438397,13.2806606 497.304933,12.9812955 497.304933,12.6510901 C497.304933,12.3208846 497.438397,12.0220512 497.654812,11.8061681 C497.870695,11.5897532 498.169529,11.4557568 498.499734,11.4557568 C498.82994,11.4557568 499.129305,11.5897532 499.345188,11.8061681 C499.561603,12.0220512 499.695067,12.3208846 499.695067,12.6510901 C499.695067,12.9812955 499.561603,13.2806606 499.345188,13.4965437 C499.129836,13.7124269 498.830471,13.8464233 498.501329,13.8464233 L498.499734,13.8464233 Z M501.111069,8.09308436 C501.232304,8.14306715 501.357261,8.16539989 501.48275,8.16061431 C501.610366,8.15476526 501.733196,8.12232961 501.849113,8.06224391 L503.175784,7.37737324 C503.186951,7.37205593 503.197585,7.369929 503.206093,7.37099246 C503.213006,7.37205593 503.222577,7.37737324 503.231084,7.38588095 L503.230553,7.38694442 L504.613587,8.76997904 C504.623158,8.77955022 504.627944,8.78805793 504.629539,8.79443871 C504.630603,8.80241469 504.627944,8.81304933 504.622627,8.8242157 L503.938288,10.1508867 C503.878202,10.2678678 503.845766,10.3906978 503.839917,10.51725 C503.8346,10.642207 503.856933,10.7666323 503.907447,10.8878671 L504.171186,11.5248819 C504.222233,11.647712 504.294548,11.7524632 504.386538,11.8370085 C504.478527,11.9210222 504.588596,11.98483 504.71568,12.0252416 L506.136999,12.4793407 C506.148697,12.482531 506.156673,12.4883801 506.161459,12.4947609 L506.161459,12.4963561 C506.165713,12.5022051 506.168371,12.5117763 506.168371,12.5245379 L506.168371,14.4759939 C506.168371,14.4892872 506.165713,14.4993901 506.161459,14.5041757 C506.15561,14.5121516 506.147634,14.5185324 506.136999,14.5217228 L504.71568,14.9758218 C504.588596,15.0157017 504.477996,15.0789778 504.386538,15.1640549 C504.293485,15.249132 504.221169,15.3533515 504.171186,15.4745863 L503.907447,16.1126646 C503.856933,16.2338995 503.8346,16.3583247 503.839917,16.4832817 C503.845766,16.6098339 503.878202,16.7331957 503.938288,16.8491133 L504.622627,18.176316 C504.627944,18.1880141 504.630603,18.198117 504.629539,18.206093 C504.627944,18.2130055 504.623158,18.2215132 504.613587,18.2310844 L503.230553,19.614119 C503.220982,19.6231585 503.211942,19.6290075 503.206093,19.6295393 C503.198117,19.6311345 503.186951,19.6290075 503.175784,19.6231585 L501.849113,18.9382878 C501.733196,18.8782021 501.609834,18.8452347 501.48275,18.8404492 C501.357793,18.8351318 501.233899,18.8574646 501.112665,18.9074474 L500.47565,19.1711864 C500.35282,19.2217009 500.248069,19.2945482 500.163523,19.3865378 C500.07951,19.4779957 500.015702,19.5891276 499.974758,19.7162116 L499.521191,21.1359357 C499.517469,21.1481655 499.51162,21.1577367 499.505771,21.1619906 C499.499922,21.1662444 499.489287,21.1683713 499.475462,21.1683713 L497.524538,21.1683713 C497.510713,21.1683713 497.500078,21.1662444 497.494229,21.1619906 C497.48838,21.1577367 497.482531,21.1481655 497.478809,21.1359357 L497.025242,19.7162116 C496.984298,19.5885959 496.92049,19.4779957 496.836477,19.3865378 C496.7514,19.2940165 496.64718,19.2211692 496.525945,19.1711864 L495.887335,18.9074474 C495.766632,18.8574646 495.642207,18.8351318 495.51725,18.8404492 C495.390698,18.8452347 495.267336,18.8782021 495.150887,18.9382878 L493.824216,19.6231585 C493.813049,19.6290075 493.801883,19.6311345 493.793907,19.6295393 C493.787526,19.6290075 493.778487,19.6231585 493.769447,19.614119 L492.377373,18.2225767 C492.373651,18.2172594 492.371524,18.2114103 492.370461,18.2066248 C492.369397,18.1986488 492.371524,18.1880141 492.377373,18.176316 L493.061712,16.8491133 C493.12233,16.7331957 493.154765,16.6098339 493.160083,16.4832817 C493.1654,16.3583247 493.143067,16.2338995 493.092553,16.1126646 L492.828814,15.4761815 C492.778299,15.3533515 492.705984,15.2486003 492.613994,15.1635232 C492.522004,15.0789778 492.411404,15.0157017 492.28432,14.9752901 L490.863001,14.5217228 C490.852898,14.5185324 490.844922,14.5116199 490.838541,14.5041757 L490.835883,14.4999218 C490.833224,14.4946045 490.83216,14.4860968 490.83216,14.4759939 L490.83216,12.5245379 C490.83216,12.5117763 490.834287,12.5016734 490.838541,12.4963561 C490.844922,12.4883801 490.852898,12.482531 490.863001,12.4793407 L492.285915,12.0252416 C492.411404,11.9853617 492.521473,11.9215539 492.613994,11.8364768 C492.705984,11.7524632 492.778299,11.6471803 492.829345,11.5243502 L493.092553,10.8878671 C493.143067,10.7666323 493.1654,10.642207 493.160083,10.51725 C493.154765,10.3906978 493.121798,10.2678678 493.061712,10.1508867 L492.377373,8.8242157 C492.371524,8.81304933 492.369397,8.80241469 492.370461,8.79443871 C492.371524,8.78646273 492.37631,8.77795502 492.384817,8.76997904 L492.386413,8.76997904 L493.769447,7.38694442 C493.778487,7.37737324 493.787526,7.37205593 493.793907,7.37099246 C493.801883,7.369929 493.813049,7.37205593 493.824216,7.37737324 L495.150887,8.06224391 C495.267336,8.12232961 495.390166,8.15476526 495.517782,8.16061431 C495.642207,8.16539989 495.766632,8.14306715 495.887335,8.09308436 L496.525945,7.82934534 L496.552,7.81764724 C496.6626,7.76713271 496.758312,7.6985393 496.836477,7.61399393 C496.921554,7.52147258 496.98483,7.41193582 497.025242,7.28644709 L497.478809,5.86459604 C497.482531,5.85236621 497.488912,5.84332676 497.494229,5.83854118 C497.500078,5.83481905 497.510713,5.8321604 497.524538,5.8321604 L499.475462,5.8321604 C499.489287,5.8321604 499.499922,5.83481905 499.505771,5.83854118 C499.51162,5.84332676 499.517469,5.85236621 499.521191,5.86459604 L499.97529,7.2848519 C500.015702,7.41193582 500.07951,7.52253605 500.163523,7.61399393 C500.2486,7.70651528 500.353351,7.77936255 500.474586,7.82934534 L501.111069,8.09308436 Z M500.812768,7.07162741 L501.429577,7.32685872 C501.438616,7.33004911 501.44606,7.33217603 501.450314,7.3316443 C501.454036,7.3316443 501.459886,7.32898564 501.468925,7.32420006 L502.795596,6.63986112 C502.96575,6.55212536 503.15292,6.52394357 503.332645,6.55212536 C503.512371,6.57977542 503.681993,6.66378906 503.817053,6.79884896 L503.818648,6.79884896 L505.201683,8.18135185 C505.336211,8.31694348 505.420225,8.48656595 505.448406,8.66788652 C505.476588,8.8476119 505.448406,9.03424979 505.360139,9.20493572 L504.6758,10.531075 C504.671014,10.5401145 504.668887,10.5464953 504.668887,10.5496857 C504.668887,10.5555347 504.669951,10.5629789 504.673673,10.5725501 L504.937944,11.2095649 C504.941134,11.2164774 504.944856,11.2223265 504.94911,11.2260486 C504.953364,11.2303025 504.958681,11.2334929 504.966126,11.2356198 L506.387445,11.6897188 C506.570892,11.7482093 506.722968,11.8604047 506.830378,12.006631 L506.830909,12.0060993 C506.938851,12.153389 507,12.3331144 507,12.5245379 L507,14.4759939 C507,14.6663539 506.938851,14.8455475 506.831441,14.993369 L506.831441,14.9949642 C506.725095,15.1406587 506.572488,15.2528541 506.387445,15.3113447 L504.965594,15.764912 C504.958681,15.7675706 504.953364,15.770761 504.948578,15.7744831 C504.945388,15.7776735 504.941666,15.7840543 504.937412,15.7930937 L504.673673,16.4279816 C504.669951,16.4375528 504.668887,16.444997 504.668887,16.4503143 C504.668887,16.4540365 504.671014,16.460949 504.6758,16.4694567 L505.360139,17.7961277 C505.448406,17.9668137 505.476588,18.1534516 505.448406,18.3331769 C505.420225,18.5139658 505.336211,18.68412 505.201683,18.8191799 L503.818648,20.2022145 C503.68412,20.3372744 503.513966,20.4207563 503.332645,20.4489381 C503.15292,20.4771199 502.96575,20.4489381 502.795596,20.3606706 L501.468925,19.6763317 C501.459886,19.6715461 501.454036,19.6694192 501.450314,19.6688874 C501.444997,19.6688874 501.436489,19.6710144 501.427982,19.6742047 L500.791499,19.9384755 C500.784054,19.9411342 500.777674,19.9448563 500.773951,19.9491101 C500.770761,19.953364 500.767039,19.959213 500.764912,19.9661256 L500.310281,21.3895718 C500.252322,21.5714241 500.140127,21.7240312 499.992837,21.831441 C499.845016,21.9393826 499.665822,22 499.475462,22 L497.524538,22 C497.334178,22 497.154984,21.9393826 497.007163,21.831441 C496.859873,21.7240312 496.747146,21.5714241 496.689187,21.3895718 L496.235088,19.9661256 C496.232961,19.959213 496.229771,19.953364 496.226049,19.9491101 C496.222858,19.9459197 496.216477,19.9416659 496.207438,19.9384755 L495.572018,19.6742047 C495.563511,19.6710144 495.555535,19.6688874 495.549686,19.6688874 C495.545964,19.6694192 495.540114,19.6715461 495.531075,19.6763317 L494.204404,20.3606706 C494.03425,20.4489381 493.84708,20.4771199 493.667355,20.4489381 C493.486034,20.4207563 493.31588,20.3372744 493.18082,20.2022145 L491.797785,18.8191799 L491.770135,18.787276 C491.651027,18.6575334 491.577117,18.4990773 491.551594,18.3331769 C491.523412,18.1534516 491.552125,17.9668137 491.639861,17.7961277 L492.3242,16.4694567 C492.328986,16.460949 492.331113,16.4540365 492.331113,16.4503143 C492.331113,16.444997 492.329517,16.4375528 492.326327,16.4279816 L492.062588,15.7914985 C492.059398,15.7840543 492.055675,15.7782052 492.051422,15.7744831 C492.047168,15.770761 492.041319,15.7670389 492.033874,15.764912 L490.612555,15.3108129 C490.428044,15.2523224 490.275437,15.1406587 490.169091,14.9949642 L490.146758,14.9609333 C490.052641,14.8200244 490,14.6530606 490,14.4759939 L490,12.5245379 C490,12.3341778 490.061149,12.1549842 490.169091,12.0076945 L490.169091,12.0060993 C490.275437,11.8604047 490.428044,11.7482093 490.612555,11.6891871 L492.032811,11.2356198 C492.041319,11.2324294 492.047168,11.229239 492.051422,11.2255169 C492.055675,11.2217948 492.059398,11.2164774 492.062588,11.2095649 L492.326327,10.5725501 C492.329517,10.5629789 492.331113,10.5555347 492.331113,10.5496857 C492.331113,10.5464953 492.328986,10.5401145 492.3242,10.531075 L491.639861,9.20493572 C491.551594,9.03424979 491.523412,8.8476119 491.551594,8.66788652 C491.579244,8.48816115 491.663789,8.31853868 491.798849,8.18241531 L491.797785,8.18135185 L493.181352,6.79884896 C493.31588,6.66378906 493.486034,6.58030715 493.667355,6.55212536 C493.846548,6.52394357 494.03425,6.55212536 494.204404,6.63986112 L495.531075,7.32420006 C495.540114,7.32898564 495.545964,7.3316443 495.549686,7.3316443 C495.555003,7.3316443 495.562979,7.33004911 495.570423,7.32685872 L496.216477,7.05833412 L496.226049,7.0514216 C496.229239,7.04769948 496.232961,7.0413187 496.235088,7.03281098 C496.395671,6.57020425 496.542961,6.07994745 496.689719,5.61149166 C496.747678,5.42910763 496.859873,5.27650058 497.007163,5.16962247 C497.154984,5.0616809 497.334178,5 497.524538,5 L499.475462,5 C499.665822,5 499.845016,5.0616809 499.992837,5.16962247 C500.140127,5.27650058 500.252854,5.4285759 500.310813,5.61095993 L500.764912,7.03440618 C500.767571,7.0413187 500.770761,7.04716775 500.774483,7.05195333 C500.777674,7.05514372 500.784054,7.05886585 500.792562,7.06258797 L500.812768,7.07162741 Z M500.295924,9.15761159 C500.872322,9.39582747 501.390229,9.74464358 501.821995,10.1769416 L501.82359,10.1785368 C502.255356,10.6108348 502.604704,11.1282099 502.84292,11.7040756 C503.07316,12.2592037 503.200244,12.8664415 503.200244,13.5002659 C503.200244,14.1340903 503.07316,14.7413281 502.84292,15.2964562 C502.608958,15.8627506 502.267586,16.3721498 501.845923,16.8001939 L501.82359,16.8241219 C501.391824,17.2553564 500.873917,17.6036408 500.296456,17.8434519 C499.740796,18.0731601 499.133559,18.200244 498.499734,18.200244 C497.866441,18.200244 497.259204,18.0731601 496.703544,17.8434519 C496.137781,17.6089581 495.62785,17.268118 495.200338,16.8459229 L495.17641,16.8241219 C494.744644,16.3923556 494.396359,15.8744487 494.15708,15.2969879 C493.92684,14.7413281 493.800288,14.134622 493.800288,13.5002659 C493.800288,12.8664415 493.92684,12.2597354 494.15708,11.7040756 C494.395296,11.1282099 494.744644,10.6108348 495.17641,10.1785368 L495.178005,10.1769416 C495.609771,9.74464358 496.127678,9.39582747 496.704076,9.15761159 C497.259204,8.92790341 497.866441,8.80028776 498.499734,8.80028776 C499.133559,8.80028776 499.740796,8.92790341 500.295924,9.15761159 Z M500.698977,16.694911 C500.476182,16.8491133 500.236902,16.980451 499.98433,17.0846705 C499.529699,17.2734353 499.027744,17.377123 498.499734,17.377123 C497.972256,17.377123 497.470833,17.2734353 497.01567,17.0846705 C496.76363,16.9809828 496.524882,16.8501767 496.30315,16.6975697 C496.347815,16.1626474 496.583372,15.6824935 496.941228,15.324638 C497.340027,14.925839 497.890901,14.6791154 498.499734,14.6785837 L498.501329,14.6785837 C499.110162,14.6785837 499.6621,14.9253073 500.061431,15.324638 C500.418223,15.6819618 500.65378,16.1615839 500.698977,16.694911 Z M495.578931,16.0509837 C495.722499,15.5469019 495.992618,15.096525 496.353133,14.7365425 C496.584436,14.5047074 496.85296,14.3106253 497.149667,14.1628038 C497.120953,14.1378124 497.093303,14.1117575 497.066717,14.0846392 C496.699822,13.7177442 496.47224,13.2110037 496.47224,12.6510901 C496.47224,12.0917081 496.699822,11.5849676 497.066717,11.2180726 C497.43308,10.8511776 497.93982,10.6241281 498.499734,10.6241281 C499.059648,10.6241281 499.566388,10.8511776 499.933283,11.2180726 C500.300178,11.5849676 500.527228,12.0917081 500.527228,12.6510901 C500.527228,13.2110037 500.300178,13.7177442 499.933283,14.0846392 C499.906697,14.1112258 499.879578,14.1372807 499.851397,14.1622721 C500.148635,14.3100935 500.417159,14.5041757 500.648994,14.7365425 C501.009509,15.096525 501.279628,15.5463701 501.423196,16.0499202 C501.698101,15.7346032 501.922492,15.3756842 502.08467,14.9848613 C502.272904,14.5296988 502.377123,14.0277439 502.377123,13.5002659 C502.377123,12.9722561 502.272904,12.4708329 502.08467,12.0162022 C501.888461,11.5424291 501.600263,11.1159801 501.242407,10.7575928 C500.884552,10.3997373 500.458103,10.1115386 499.98433,9.91586125 C499.529699,9.72709643 499.027744,9.62340871 498.499734,9.62340871 C497.972256,9.62340871 497.470301,9.72709643 497.01567,9.91586125 C496.542429,10.1115386 496.115448,10.3997373 495.757593,10.7575928 C495.399737,11.1159801 495.111539,11.5424291 494.915861,12.0156705 C494.727096,12.4713647 494.622877,12.9722561 494.622877,13.5002659 C494.622877,14.0282756 494.727096,14.5296988 494.915861,14.9848613 C495.076976,15.3751525 495.30243,15.735135 495.578931,16.0509837 Z" id="Fill-1"></path>
            </g>
        </g>
    </g>
</svg>