<?xml version="1.0" encoding="UTF-8"?>
<svg width="17px" height="17px" viewBox="0 0 17 17" version="1.1" xmlns="http://www.w3.org/2000/svg" xmlns:xlink="http://www.w3.org/1999/xlink">
    <!-- Generator: Sketch 48.1 (47250) - http://www.bohemiancoding.com/sketch -->
    <title>Contacts@2x</title>
    <desc>Created with Sketch.</desc>
    <defs></defs>
    <g id="header" stroke="none" stroke-width="1" fill="none" fill-rule="evenodd" transform="translate(-695.000000, -13.000000)">
        <g id="Group-20" fill="#FFFFFF">
            <g id="Group-18" transform="translate(425.000000, 8.000000)">
                <g id="Group-4" transform="translate(0.000000, 2.000000)">
                    <g id="Group-13" transform="translate(255.000000, 2.000000)">
                        <g id="Glyphs-/-Phone-/-Contacts" transform="translate(14.000000, 0.000000)">
                            <path d="M15.121968,15.875476 C16.88684,14.317936 18,12.039052 18,9.5 C18,4.8055792 14.194448,1 9.5,1 C4.8055792,1 1,4.8055792 1,9.5 C1,12.039052 2.1131328,14.317936 3.8780456,15.875476 C5.3763372,17.197804 7.3446176,18 9.5,18 C11.553804,18 13.43754,17.271516 14.906816,16.05894 C14.979508,15.999032 15.051248,15.9379 15.121968,15.875476 L15.121968,15.875476 Z M4.571326,15.57172 C4.9392196,15.425588 5.3504428,15.277688 5.7417352,15.136928 L5.7467196,15.135092 C6.3085152,14.93286 6.8286404,14.745588 7.12,14.6 C7.8,14.26 7.68661,13.013356 7.12,12.22 C6.66661,11.086644 6.1,9.25826 6.1,8.65 C6.1,8.462252 6.2037612,8.290552 6.2967308,8.136872 C6.371932,8.0125 6.44,7.899756 6.44,7.8 C6.4194164,7.7384056 6.3951744,7.6806328 6.36928,7.6188752 C6.2519052,7.33947 6.1,6.9775604 6.1,5.8058184 C6.1,4.06 8.48102,3.38 9.5,3.38 C10.51898,3.38 12.9,4.06 12.9,5.8058184 C12.9,6.9775604 12.748088,7.33947 12.63072,7.6188752 C12.604812,7.6806328 12.580604,7.7384056 12.56,7.8 C12.56,7.899756 12.628068,8.0125 12.703276,8.136872 C12.796232,8.290552 12.9,8.462252 12.9,8.65 C12.9,9.25826 12.333356,11.086644 11.88,12.22 C11.313356,13.013356 11.2,14.26 11.88,14.6 C12.17138,14.745588 12.691512,14.93286 13.25326,15.135092 L13.258292,15.136928 C13.649564,15.277688 14.06076,15.425588 14.42864,15.57172 C16.1929,14.137804 17.32,11.950584 17.32,9.5 C17.32,5.1811024 13.818884,1.68 9.5,1.68 C5.1811024,1.68 1.68,5.1811024 1.68,9.5 C1.68,11.950584 2.8070796,14.137804 4.571326,15.57172 L4.571326,15.57172 Z" id="Contacts"></path>
                        </g>
                    </g>
                </g>
            </g>
        </g>
    </g>
</svg>