<?xml version="1.0" encoding="UTF-8"?>
<svg width="16px" height="18px" viewBox="0 0 16 18" version="1.1" xmlns="http://www.w3.org/2000/svg" xmlns:xlink="http://www.w3.org/1999/xlink">
    <!-- Generator: Sketch 48.1 (47250) - http://www.bohemiancoding.com/sketch -->
    <title>Page 1@2x</title>
    <desc>Created with Sketch.</desc>
    <defs>
        <polygon id="path-1" points="0 0 16 0 16 18 0 18"></polygon>
    </defs>
    <g id="header" stroke="none" stroke-width="1" fill="none" fill-rule="evenodd" transform="translate(-503.000000, -13.000000)">
        <g id="Group-20">
            <g id="Group-18" transform="translate(425.000000, 8.000000)">
                <g id="Group-4" transform="translate(0.000000, 2.000000)">
                    <g id="Group-16" transform="translate(63.000000, 3.000000)">
                        <g id="Page-1" transform="translate(15.000000, 0.000000)">
                            <mask id="mask-2" fill="white">
                                <use xlink:href="#path-1"></use>
                            </mask>
                            <g id="Clip-2"></g>
                            <path d="M15.1486847,13.125 C15.0481311,13.29825 14.8860447,13.42275 14.6931919,13.4745 C14.498088,13.52625 14.2962304,13.49925 14.1236384,13.39875 C13.9495456,13.299 13.8257296,13.13775 13.773952,12.94425 C13.7221745,12.75075 13.7491888,12.54825 13.848992,12.375 C13.9487952,12.20175 14.1108816,12.07725 14.3044848,12.0255 C14.3690192,12.00825 14.434304,11.99925 14.4995888,11.99925 C14.6301583,11.99925 14.7577263,12.03375 14.8740383,12.10125 C15.0473807,12.201 15.1711967,12.36225 15.2237247,12.55575 C15.2755023,12.74925 15.2484879,12.95175 15.1486847,13.125 M8.0003752,11.25 C6.75846336,11.25 5.74917549,10.2405 5.74917549,9 C5.74917549,7.7595 6.75846336,6.75 8.0003752,6.75 C9.24153664,6.75 10.2515749,7.7595 10.2515749,9 C10.2515749,10.2405 9.24153664,11.25 8.0003752,11.25 M8.7507751,16.5 C8.7507751,16.914 8.41384555,17.25 8.0003752,17.25 C7.58615445,17.25 7.2499753,16.914 7.2499753,16.5 C7.2499753,16.086 7.58615445,15.75 8.0003752,15.75 C8.41384555,15.75 8.7507751,16.086 8.7507751,16.5 M7.2499753,1.5 C7.2499753,1.08675 7.58615445,0.75 8.0003752,0.75 C8.41384555,0.75 8.7507751,1.08675 8.7507751,1.5 C8.7507751,1.91325 8.41384555,2.25 8.0003752,2.25 C7.58615445,2.25 7.2499753,1.91325 7.2499753,1.5 M2.22604795,12.94425 C2.17427036,13.13775 2.05045438,13.299 1.8763616,13.39875 C1.70301922,13.49925 1.50191205,13.52625 1.30755847,13.4745 C1.1139553,13.42275 0.95186892,13.29825 0.851315333,13.125 C0.751512146,12.95175 0.72449775,12.74925 0.777025743,12.55575 C0.828803336,12.36225 0.95261932,12.201 1.1259617,12.10125 C1.24227368,12.03375 1.37059207,11.99925 1.50116165,11.99925 C1.56494564,11.99925 1.63098083,12.00825 1.69551522,12.0255 C1.8891184,12.07725 2.05120478,12.20175 2.15175836,12.375 C2.25156155,12.54825 2.27857595,12.75075 2.22604795,12.94425 M2.15175836,5.625 C2.05120478,5.79825 1.8891184,5.92275 1.69551522,5.9745 C1.50116165,6.0255 1.29930407,6 1.1259617,5.8995 C0.95261932,5.799 0.828803336,5.63775 0.777025743,5.44425 C0.72449775,5.25075 0.751512146,5.04825 0.851315333,4.875 C0.95186892,4.70175 1.1139553,4.57725 1.30755847,4.5255 C1.37209287,4.50825 1.43812806,4.5 1.50191205,4.5 C1.63248163,4.5 1.76080001,4.53375 1.8763616,4.6005 C2.05045438,4.701 2.17427036,4.86225 2.22604795,5.05575 C2.27857595,5.24925 2.25156155,5.45175 2.15175836,5.625 M13.773952,5.05575 C13.8257296,4.86225 13.9495456,4.701 14.1236384,4.6005 C14.2392,4.53375 14.3675184,4.5 14.498088,4.5 C14.5626223,4.5 14.6286575,4.50825 14.6931919,4.5255 C14.8860447,4.57725 15.0481311,4.70175 15.1486847,4.875 C15.2484879,5.04825 15.2755023,5.25075 15.2237247,5.44425 C15.1711967,5.63775 15.0473807,5.799 14.8740383,5.8995 C14.7006959,5.99925 14.4988384,6.02625 14.3044848,5.9745 C14.1108816,5.92275 13.9487952,5.79825 13.848992,5.625 C13.7491888,5.45175 13.7221745,5.24925 13.773952,5.05575 M14.1101312,11.301 C13.8482416,11.3715 13.6186193,11.51325 13.4332705,11.70225 L10.7663492,10.16325 C10.9171796,9.80475 11.0019748,9.4125 11.0019748,9 C11.0019748,8.5875 10.9171796,8.1945 10.7663492,7.83675 L13.4332705,6.29775 C13.6186193,6.48675 13.8482416,6.6285 14.1101312,6.699 C14.2392,6.7335 14.37052,6.75075 14.5010896,6.75075 C14.7607279,6.75075 15.0173647,6.6825 15.2492383,6.549 C15.5966734,6.34875 15.8450558,6.0255 15.9478606,5.6385 C16.0521661,5.25075 15.9988878,4.8465 15.7977806,4.5 C15.5981742,4.1535 15.2740015,3.90525 14.8867951,3.801 C14.5010896,3.6975 14.0958736,3.75075 13.7484384,3.951 C13.4010033,4.15125 13.1526209,4.4745 13.0490657,4.8615 C12.9785282,5.12475 12.9860321,5.39325 13.0573201,5.649 L10.3806437,7.19325 C9.90489015,6.56775 9.19276064,6.141 8.37557515,6.0375 L8.37557515,2.94675 C9.02091907,2.7795 9.501175,2.19675 9.501175,1.5 C9.501175,0.67275 8.82731589,0 8.0003752,0 C7.17268411,0 6.4995754,0.67275 6.4995754,1.5 C6.4995754,2.19675 6.97983133,2.7795 7.62517525,2.94675 L7.62517525,6.0375 C6.80723936,6.141 6.09586025,6.56775 5.61935631,7.19325 L2.94267986,5.649 C3.01396785,5.39325 3.02147185,5.12475 2.95093426,4.8615 C2.84737907,4.4745 2.59899671,4.15125 2.25156155,3.951 C1.9048768,3.75075 1.50041125,3.69825 1.1132049,3.801 C0.725998549,3.90525 0.402576192,4.1535 0.202219418,4.5 C0.00111224411,4.8465 -0.0521661489,5.25075 0.0521394374,5.6385 C0.155694624,6.0255 0.404076992,6.34875 0.750761746,6.549 C0.982635316,6.6825 1.23927208,6.75075 1.49966085,6.75075 C1.62948003,6.75075 1.76080001,6.7335 1.8898688,6.699 C2.15250876,6.6285 2.38213113,6.48675 2.56747991,6.29775 L5.23365076,7.83675 C5.08206998,8.1945 4.99877559,8.5875 4.99877559,9 C4.99877559,9.4125 5.08206998,9.80475 5.23365076,10.16325 L2.56747991,11.70225 C2.38213113,11.51325 2.15250876,11.3715 1.8898688,11.301 C1.50416325,11.1975 1.0981969,11.25075 0.750761746,11.45175 C0.404076992,11.65125 0.155694624,11.9745 0.0521394374,12.3615 C-0.0521661489,12.7485 0.00111224411,13.1535 0.202219418,13.5 C0.402576192,13.8465 0.725998549,14.0955 1.1132049,14.199 C1.24227368,14.2335 1.37359366,14.25075 1.50341285,14.25075 C1.76380161,14.25075 2.02043838,14.1825 2.25156155,14.04825 C2.59899671,13.84875 2.84737907,13.5255 2.95093426,13.1385 C3.02147185,12.876 3.01396785,12.60675 2.94267986,12.35175 L5.61935631,10.80675 C6.09586025,11.4315 6.80723936,11.859 7.62517525,11.96175 L7.62517525,15.05325 C6.97983133,15.22125 6.4995754,15.8025 6.4995754,16.5 C6.4995754,17.32725 7.17268411,18 8.0003752,18 C8.82731589,18 9.501175,17.32725 9.501175,16.5 C9.501175,15.8025 9.02091907,15.22125 8.37557515,15.05325 L8.37557515,11.96175 C9.19276064,11.859 9.90489015,11.4315 10.3806437,10.80675 L13.0573201,12.35175 C12.9860321,12.60675 12.9785282,12.876 13.0490657,13.1385 C13.1526209,13.5255 13.4010033,13.84875 13.7484384,14.04825 C13.9795616,14.1825 14.2361984,14.25075 14.4965872,14.25075 C14.6271567,14.25075 14.7577263,14.2335 14.8867951,14.199 C15.2740015,14.0955 15.5981742,13.8465 15.7977806,13.5 C15.9988878,13.1535 16.0521661,12.7485 15.9478606,12.3615 C15.8450558,11.9745 15.5966734,11.65125 15.2492383,11.45175 C14.9018031,11.2515 14.4973376,11.19825 14.1101312,11.301 Z" id="Fill-1" fill="#FFFFFF" mask="url(#mask-2)"></path>
                        </g>
                    </g>
                </g>
            </g>
        </g>
    </g>
</svg>