<?xml version="1.0" encoding="UTF-8"?>
<svg width="21px" height="15px" viewBox="0 0 21 15" version="1.1" xmlns="http://www.w3.org/2000/svg" xmlns:xlink="http://www.w3.org/1999/xlink">
    <!-- Generator: Sketch 48.1 (47250) - http://www.bohemiancoding.com/sketch -->
    <title>Page 1@2x</title>
    <desc>Created with Sketch.</desc>
    <defs>
        <polygon id="path-1" points="0 0.295944444 17.5800857 0.295944444 17.5800857 13.2222222 0 13.2222222"></polygon>
        <polygon id="path-3" points="0.09672 0.340736 11.99992 0.340736 11.99992 11 0.09672 11"></polygon>
    </defs>
    <g id="header" stroke="none" stroke-width="1" fill="none" fill-rule="evenodd" transform="translate(-556.000000, -15.000000)">
        <g id="Group-20">
            <g id="Group-18" transform="translate(425.000000, 8.000000)">
                <g id="Group-4" transform="translate(0.000000, 2.000000)">
                    <g id="Page-1" transform="translate(131.000000, 5.000000)">
                        <g id="Group-3">
                            <mask id="mask-2" fill="white">
                                <use xlink:href="#path-1"></use>
                            </mask>
                            <g id="Clip-2"></g>
                            <path d="M3.77322857,13.2222222 C3.72608571,13.2222222 3.67765714,13.2148333 3.6318,13.2004444 C3.45994286,13.146 3.34465714,12.9986111 3.34465714,12.8333333 L3.34465714,9.29483333 L1.43194286,9.29483333 C0.642085714,9.29483333 -0.000342857143,8.71188889 -0.000342857143,7.99594444 L-0.000342857143,1.59561111 C-0.000342857143,0.878888889 0.642085714,0.295944444 1.43194286,0.295944444 L16.1478,0.295944444 C16.9376571,0.295944444 17.5800857,0.878888889 17.5800857,1.59561111 L17.5800857,2.74283333 C17.5800857,2.9575 17.3885143,3.13172222 17.1515143,3.13172222 C16.9149429,3.13172222 16.7229429,2.9575 16.7229429,2.74283333 L16.7229429,1.59561111 C16.7229429,1.30744444 16.4649429,1.07372222 16.1478,1.07372222 L1.43194286,1.07372222 C1.11522857,1.07372222 0.8568,1.30744444 0.8568,1.59561111 L0.8568,7.99594444 C0.8568,8.28333333 1.11522857,8.51705556 1.43194286,8.51705556 L3.77322857,8.51705556 C4.0098,8.51705556 4.2018,8.69127778 4.2018,8.90594444 L4.2018,11.7222778 L6.8898,8.66366667 C6.9708,8.57111111 7.09422857,8.51705556 7.22494286,8.51705556 L8.12065714,8.51705556 C8.3568,8.51705556 8.54922857,8.69127778 8.54922857,8.90594444 C8.54922857,9.121 8.3568,9.29483333 8.12065714,9.29483333 L7.43108571,9.29483333 L4.10794286,13.0756111 C4.02522857,13.1701111 3.90094286,13.2222222 3.77322857,13.2222222" id="Fill-1" fill="#FFFFFF" mask="url(#mask-2)"></path>
                        </g>
                        <g id="Group-6" transform="translate(9.000000, 4.000000)">
                            <mask id="mask-4" fill="white">
                                <use xlink:href="#path-3"></use>
                            </mask>
                            <g id="Clip-5"></g>
                            <path d="M1.16152,1.220736 C1.01312,1.220736 0.89672,1.348776 0.89672,1.512016 L0.89672,6.666176 C0.89672,6.829416 1.01312,6.957456 1.16152,6.957456 L7.08912,6.957456 C7.21112,6.957456 7.32632,7.018616 7.40272,7.123336 L8.97752,9.300456 L8.97752,7.397456 C8.97752,7.154136 9.15632,6.957456 9.37752,6.957456 L10.93512,6.957456 C11.08352,6.957456 11.19992,6.829416 11.19992,6.666176 L11.19992,1.512016 C11.19992,1.348776 11.08352,1.220736 10.93512,1.220736 L1.16152,1.220736 Z M9.37752,11.000176 C9.25792,11.000176 9.14192,10.941216 9.06472,10.834296 L6.89632,7.837456 L1.16152,7.837456 C0.57432,7.837456 0.09672,7.312096 0.09672,6.666176 L0.09672,1.512016 C0.09672,0.866096 0.57432,0.340736 1.16152,0.340736 L10.93512,0.340736 C11.52232,0.340736 11.99992,0.866096 11.99992,1.512016 L11.99992,6.666176 C11.99992,7.312096 11.52232,7.837456 10.93512,7.837456 L9.77752,7.837456 L9.77752,10.560176 C9.77752,10.746736 9.66992,10.913496 9.50912,10.975536 C9.46632,10.991816 9.42152,11.000176 9.37752,11.000176 Z" id="Fill-4" fill="#FFFFFF" mask="url(#mask-4)"></path>
                        </g>
                    </g>
                </g>
            </g>
        </g>
    </g>
</svg>