<?xml version="1.0" encoding="UTF-8"?>
<svg width="28px" height="15px" viewBox="0 0 28 15" version="1.1" xmlns="http://www.w3.org/2000/svg" xmlns:xlink="http://www.w3.org/1999/xlink">
    <!-- Generator: Sketch 48.1 (47250) - http://www.bohemiancoding.com/sketch -->
    <title>Page 1@2x</title>
    <desc>Created with Sketch.</desc>
    <defs>
        <polygon id="path-1" points="0 0.195771429 2.06558333 0.195771429 2.06558333 5.61634286 0 5.61634286"></polygon>
        <polygon id="path-3" points="0.735933333 0.755428571 5.2358997 0.755428571 5.2358997 6.61085714 0.735933333 6.61085714"></polygon>
    </defs>
    <g id="header" stroke="none" stroke-width="1" fill="none" fill-rule="evenodd" transform="translate(-981.000000, -21.000000)">
        <g id="Group-20">
            <g id="Group" transform="translate(981.000000, 20.000000)">
                <g id="Page-1">
                    <g id="Group-3" transform="translate(0.000000, 8.387314)">
                        <mask id="mask-2" fill="white">
                            <use xlink:href="#path-1"></use>
                        </mask>
                        <g id="Clip-2"></g>
                        <path d="M1.65141667,3.26777143 C1.63158333,2.94205714 1.62691667,2.61977143 1.63625,2.29862857 C1.30375,1.61634286 1.00625,0.882628571 0.75775,0.195771429 L-0.000583333333,0.790057143 C0.261916667,1.75691429 0.966583333,4.19234286 2.06558333,5.61634286 C1.84391667,4.86548571 1.70158333,4.08034286 1.65141667,3.26777143" id="Fill-1" fill="#AAD237" mask="url(#mask-2)"></path>
                    </g>
                    <path d="M7.32585,9.73771429 C7.18818333,9.64857143 7.05285,9.556 6.91985,9.46114286 C6.97118333,9.74914286 6.99218333,10.0142857 6.99451667,10.2531429 C6.99801667,10.6862857 6.94201667,11.0268571 6.90585,11.2302857 C6.89885,11.268 6.89068333,11.3045714 6.88368333,11.3422857 C7.18118333,11.0611429 7.49735,10.7982857 7.82985,10.5548571 C7.83218333,10.5068571 7.83335,10.4577143 7.83451667,10.4085714 C7.83568333,10.2851429 7.83451667,10.164 7.82985,10.0428571 C7.65835,9.94571429 7.49035,9.844 7.32585,9.73771429" id="Fill-4" fill="#FFCD00"></path>
                    <path d="M3.95173333,13.4084571 C3.92956667,13.4016 3.9074,13.3924571 3.8864,13.3856 C3.8199,13.3627429 3.7569,13.3376 3.69623333,13.3113143 C2.94956667,12.9730286 2.24606667,11.9296 1.6534,10.7216 C1.64756667,10.7101714 1.64173333,10.6987429 1.6359,10.6861714 C1.62656667,11.0061714 1.63123333,11.3296 1.65106667,11.6553143 C1.7024,12.4678857 1.84356667,13.2530286 2.06523333,14.0038857 C2.1294,14.0861714 2.19473333,14.1650286 2.26123333,14.2416 C2.28106667,14.2633143 2.3009,14.2850286 2.3219,14.3056 C2.3464,14.3341714 2.37206667,14.3616 2.39656667,14.3878857 C2.58323333,14.5776 2.77806667,14.7364571 2.9834,14.8553143 C3.47223333,15.1364571 3.9319,15.2438857 4.3519,15.2438857 C4.56773333,14.6187429 4.84773333,14.0198857 5.18373333,13.4564571 C4.7544,13.5616 4.3169,13.5227429 3.95173333,13.4084571" id="Fill-6" fill="#FFCD00"></path>
                    <path d="M5.831,11.7065143 C5.51716667,11.3213714 5.08316667,10.6710857 4.9525,9.8928 C4.85916667,9.3328 4.87083333,8.78422857 5.21383333,8.46537143 C5.30366667,8.38308571 5.41216667,8.31565714 5.54283333,8.27108571 C5.23366667,7.95222857 4.9455,7.61051429 4.68183333,7.2528 C4.6515,7.27451429 4.62,7.29851429 4.58966667,7.3248 C4.33766667,7.53851429 4.09266667,7.8848 4.02616667,8.43794286 C3.86633333,9.76937143 4.53016667,11.1842286 5.29666667,12.2425143 L5.29783333,12.2459429 C5.42033333,12.4139429 5.54516667,12.5728 5.66883333,12.7213714 C5.82866667,12.5019429 5.99666667,12.2893714 6.17283333,12.0836571 C6.16933333,12.0790857 6.16466667,12.0745143 6.15883333,12.0699429 C6.1215,12.0322286 5.992,11.9053714 5.831,11.7065143" id="Fill-8" fill="#FFCD00"></path>
                    <path d="M11.2098,9.24662857 C11.2016333,9.14948571 11.1923,9.05462857 11.1829667,8.96091429 C10.8854667,9.03862857 10.5949667,9.13005714 10.3103,9.23291429 C10.3161333,9.74148571 10.2893,10.3003429 10.1866333,10.8249143 C10.1749667,10.8843429 10.1621333,10.9426286 10.1481333,11.0020571 C9.94513333,11.8774857 9.5123,12.6203429 8.65713333,12.8009143 C8.2033,12.8969143 7.78796667,12.8832 7.41113333,12.7860571 C7.65496667,12.1266286 7.80313333,11.3369143 7.82996667,10.5552 C7.49746667,10.7974857 7.1813,11.0614857 6.8838,11.3426286 C6.7998,11.7506286 6.6773,12.0912 6.52563333,12.3700571 C6.41246667,12.2969143 6.29346667,12.1997714 6.1733,12.0832 C5.99596667,12.2889143 5.82796667,12.5026286 5.6693,12.7209143 C5.6728,12.7254857 5.6763,12.7300571 5.6798,12.7334857 C5.7778,12.8500571 5.87463333,12.9597714 5.9703,13.0614857 C5.74746667,13.2466286 5.5048,13.3666286 5.2563,13.4374857 C5.2318,13.4443429 5.2073,13.4512 5.1828,13.4569143 C4.8468,14.0203429 4.56796667,14.6180571 4.35213333,15.2443429 C4.4023,15.2443429 4.45246667,15.2432 4.50146667,15.2397714 C5.92946667,15.1506286 6.8628,13.8180571 6.8628,13.8180571 C7.7728,14.8489143 8.8543,14.5814857 8.8543,14.5814857 C10.4759667,14.2523429 11.0523,12.7472 11.2063,11.2340571 C11.2133,11.1586286 11.2203,11.0820571 11.2261333,11.0066286 C11.2728,10.3849143 11.2529667,9.7712 11.2098,9.24662857" id="Fill-10" fill="#DC2D6E"></path>
                    <path d="M7.71598333,9.04354286 C7.70198333,8.97611429 7.68798333,8.91097143 7.67165,8.84582857 C7.36365,7.59782857 6.59831667,6.71211429 5.22748333,6.99554286 C5.22748333,6.99554286 4.96381667,7.04697143 4.68148333,7.25268571 C4.94515,7.6104 5.23448333,7.95211429 5.54248333,8.27097143 C5.59381667,8.25497143 5.64748333,8.24011429 5.70348333,8.22982857 C6.47698333,8.08811429 6.80365,8.91325714 6.88881667,9.30411429 C6.89931667,9.35554286 6.90981667,9.40811429 6.91915,9.46068571 C7.05215,9.55554286 7.18748333,9.64811429 7.32631667,9.73725714 C7.49081667,9.84354286 7.65881667,9.94525714 7.82915,10.0424 C7.82915,10.0161143 7.82798333,9.98868571 7.82681667,9.96354286 C7.81281667,9.64582857 7.77548333,9.33725714 7.71598333,9.04354286" id="Fill-12" fill="#F06E6E"></path>
                    <path d="M14.7827167,6.5056 C14.6998833,6.52731429 14.6182167,6.55017143 14.5377167,6.5776 C14.3778833,6.63131429 14.22505,6.69988571 14.08155,6.78102857 C13.87505,6.88617143 13.6487167,6.97074286 13.41655,7.04045714 C12.35255,7.3536 11.12405,7.32274286 10.75655,7.17874286 C10.3727167,6.1776 9.43705,5.99474286 9.19321667,6.51131429 C9.00655,6.90674286 9.30171667,7.32845714 9.71588333,7.56045714 L9.71588333,7.5616 C9.83255,7.6256 9.95855,7.67702857 10.0857167,7.70788571 C10.1183833,7.71931429 10.1522167,7.7296 10.18955,7.74102857 C10.23155,7.88502857 10.2572167,8.00045714 10.2618833,8.05417143 C10.26305,8.0736 10.2758833,8.16502857 10.3038833,9.00617143 C10.3073833,9.08045714 10.30855,9.15588571 10.3097167,9.2336 C10.5943833,9.13074286 10.88605,9.03931429 11.18355,8.96045714 C11.1742167,8.87817143 11.1648833,8.79702857 11.1543833,8.71702857 C11.0948833,8.24388571 11.08555,8.2176 11.0003833,7.92845714 C11.48455,8.00845714 12.1017167,8.05874286 12.8448833,8.02217143 C12.84955,8.02217143 12.85305,8.02217143 12.8577167,8.02102857 C12.82155,8.08274286 12.7877167,8.14445714 12.75505,8.20617143 C12.68855,8.34902857 12.6243833,8.49302857 12.5648833,8.63931429 C12.93005,8.59245714 13.30105,8.56502857 13.6767167,8.55702857 C13.9613833,7.95702857 14.4292167,7.57302857 15.06855,7.37302857 C14.96005,7.09302857 14.8643833,6.80388571 14.7827167,6.5056" id="Fill-14" fill="#F06E6E"></path>
                    <path d="M17.92665,11.7878857 C17.75165,11.4438857 17.6373167,11.0667429 17.56265,10.7238857 C17.5603167,10.7261714 17.5579833,10.7273143 17.55565,10.7284571 C17.56965,10.7878857 17.5848167,10.8450286 17.5988167,10.9021714 C17.6128167,10.9536 17.6268167,11.0027429 17.6408167,11.0518857 C17.2044833,11.6621714 16.5698167,12.0987429 15.9223167,12.2873143 C15.0018167,12.5536 14.05565,12.3147429 13.61465,11.3410286 C13.4559833,10.9913143 13.36265,10.5444571 13.3603167,9.99131429 C13.3859833,9.45302857 13.4804833,9.0016 13.6438167,8.62788571 C13.6543167,8.60388571 13.6659833,8.57988571 13.6764833,8.55702857 C13.3008167,8.56502857 12.9298167,8.59245714 12.56465,8.63931429 C12.5564833,8.66102857 12.54715,8.6816 12.5389833,8.70331429 C12.5144833,8.76274286 12.49115,8.82102857 12.4689833,8.8816 C12.2053167,9.67017143 12.1364833,10.5490286 12.2869833,11.3513143 C12.3359833,11.6084571 12.4059833,11.8576 12.5004833,12.0930286 C12.8668167,13.0130286 13.8689833,13.6633143 14.95165,13.7296 C15.78815,13.7821714 16.67365,13.4873143 17.3503167,12.7033143 C17.4028167,12.6404571 17.4553167,12.5753143 17.50665,12.5078857 C17.66065,12.3021714 17.80415,12.0678857 17.93365,11.8038857 C17.9313167,11.7981714 17.9289833,11.7936 17.92665,11.7878857" id="Fill-16" fill="#E687B4"></path>
                    <path d="M25.2730333,8.26891429 C25.1680333,8.45177143 25.0513667,8.63577143 24.9230333,8.81977143 C24.8798667,8.88262857 24.8343667,8.94548571 24.7865333,9.00834286 C24.7048667,9.1192 24.6185333,9.23005714 24.5275333,9.33977143 C24.2988667,9.61862857 24.0410333,9.89405714 23.7505333,10.1660571 C23.6852,10.2277714 23.6175333,10.2894857 23.5475333,10.3500571 C23.5032,10.3889143 23.4577,10.4300571 23.4122,10.4689143 C23.4588667,10.6323429 23.5113667,10.7957714 23.5685333,10.9557714 C23.6455333,11.1729143 23.7342,11.3866286 23.8310333,11.5946286 C24.2860333,11.2563429 24.7818667,10.8483429 25.2543667,10.3592 C25.5530333,10.0506286 25.8423667,9.70777143 26.1060333,9.33291429 C26.1095333,9.3272 26.1130333,9.32262857 26.1165333,9.31805714 C26.1515333,9.26662857 26.1877,9.2152 26.2215333,9.16262857 C26.6368667,8.53405714 26.9740333,7.81634286 27.1642,6.99805714 C26.7652,6.81291429 26.3848667,6.59462857 26.0267,6.34777143 C25.8937,6.94777143 25.6580333,7.60034286 25.2730333,8.26891429" id="Fill-18" fill="#28B9F5"></path>
                    <path d="M25.2866833,12.9810286 C25.04985,12.9753143 24.8176833,12.9478857 24.59835,12.9021714 C24.6345167,12.9513143 24.6706833,13.0004571 24.70685,13.0484571 C24.97635,13.4016 25.2750167,13.7318857 25.59935,14.0358857 C25.92485,14.0016 26.2480167,13.9273143 26.5606833,13.8153143 C26.9410167,13.6793143 27.3085167,13.4861714 27.6480167,13.2336 L27.3505167,12.3604571 C26.79285,12.8198857 26.0205167,13.0016 25.2866833,12.9810286" id="Fill-20" fill="#28B9F5"></path>
                    <g id="Group-24" transform="translate(22.166667, 0.387314)">
                        <mask id="mask-4" fill="white">
                            <use xlink:href="#path-3"></use>
                        </mask>
                        <g id="Clip-23"></g>
                        <path d="M5.18676667,3.64285714 C5.06776667,2.67942857 4.74343333,1.988 4.3141,1.52285714 C3.6141,0.764 2.6341,0.609714286 1.80576667,0.877142857 C1.75793333,0.893142857 1.71126667,0.909142857 1.6646,0.927428571 C1.5141,0.985714286 1.36126667,1.05428571 1.2061,1.13542857 C1.07426667,1.20285714 0.9401,1.28171429 0.808266667,1.36857143 C0.783766667,1.38342857 0.760433333,1.40057143 0.735933333,1.41771429 C0.8771,2.02342857 1.09176667,2.60057143 1.3706,3.14228571 C1.4581,3.04742857 1.5491,2.95942857 1.64593333,2.87828571 C1.66576667,2.86 1.68676667,2.84514286 1.70776667,2.82914286 C1.75093333,2.79485714 1.79293333,2.76171429 1.8361,2.73428571 C2.29926667,2.428 2.7286,2.45428571 3.06343333,2.60971429 C3.3726,2.75257143 3.60243333,3.004 3.70976667,3.20857143 C3.7856,3.31714286 3.86026667,3.508 3.91626667,3.76171429 C3.96526667,3.98571429 3.9991,4.25885714 4.00493333,4.57085714 C4.01426667,4.97771429 3.9746,5.44857143 3.86026667,5.96057143 C4.21843333,6.20742857 4.59876667,6.42571429 4.9966,6.61085714 C5.0211,6.50685714 5.0421,6.40171429 5.06193333,6.29542857 C5.16693333,5.70685714 5.2206,5.17085714 5.23343333,4.68628571 C5.24276667,4.308 5.22526667,3.96057143 5.18676667,3.64285714" id="Fill-22" fill="#7DF0CD" mask="url(#mask-4)"></path>
                    </g>
                    <path d="M18.7212667,10.7700571 C18.6442667,10.5757714 18.5847667,10.3483429 18.5486,10.0832 C18.5369333,9.99748571 18.5264333,9.90834286 18.5206,9.81462857 C18.5171,9.77348571 18.5147667,9.7312 18.5136,9.68891429 C18.4867667,9.10834286 18.5544333,8.38262857 18.7562667,7.47634286 C18.4039333,6.73234286 16.4369333,6.07062857 14.7826,6.50605714 C14.8642667,6.8032 14.9599333,7.09234286 15.0684333,7.37234286 C15.2457667,7.31748571 15.4347667,7.27634286 15.6377667,7.24891429 C16.3716,7.14948571 17.0202667,7.3392 17.5534333,7.73348571 C17.4496,8.20205714 17.4087667,8.77234286 17.4111,9.30605714 C17.4134333,9.66377143 17.4367667,10.0066286 17.4741,10.2877714 C17.4892667,10.4020571 17.5056,10.5060571 17.5254333,10.5974857 C17.5347667,10.6420571 17.5452667,10.6866286 17.5557667,10.7289143 L17.5616,10.7243429 C17.6374333,11.0672 17.7517667,11.4443429 17.9267667,11.7883429 C17.9291,11.7940571 17.9314333,11.7974857 17.9337667,11.8032 L17.9349333,11.8020571 C17.9501,11.8329143 17.9664333,11.8626286 17.9816,11.8923429 C17.9827667,11.8946286 17.9839333,11.8957714 17.9851,11.8980571 C17.9874333,11.9026286 17.9897667,11.9060571 17.9921,11.9106286 C18.1367667,12.1746286 18.3012667,12.3929143 18.4774333,12.5712 C18.6244333,12.1312 18.8157667,11.7117714 19.0432667,11.3163429 C18.9184333,11.1712 18.8087667,10.9906286 18.7212667,10.7700571" id="Fill-25" fill="#910F46"></path>
                    <path d="M22.9020167,1.80468571 C22.5135167,2.06982857 22.1355167,2.41954286 21.7995167,2.87668571 C21.65135,3.08011429 21.5101833,3.30411429 21.38185,3.55325714 C21.27685,3.7544 21.1811833,3.97154286 21.0936833,4.20468571 C20.74485,5.13497143 20.5441833,6.3304 20.5920167,7.86525714 C20.6036833,8.28582857 20.63635,8.73268571 20.68885,9.20811429 C20.6900167,9.2104 20.6900167,9.21611429 20.6900167,9.22068571 C20.69585,9.26754286 20.7016833,9.31554286 20.7075167,9.36354286 C20.9175167,9.19097143 21.1391833,9.03097143 21.3690167,8.8824 C21.6350167,8.71325714 21.9115167,8.55897143 22.1985167,8.42411429 C22.1950167,8.28925714 22.1915167,8.15211429 22.1915167,8.01154286 C22.19385,7.39325714 22.24635,6.74068571 22.3676833,6.11097143 C22.4516833,5.67211429 22.5695167,5.24468571 22.7305167,4.84582857 C22.9125167,4.3944 23.1481833,3.9784 23.4480167,3.62982857 C23.4771833,3.59554286 23.5075167,3.5624 23.53785,3.52925714 C23.2590167,2.98754286 23.04435,2.4104 22.9020167,1.80468571" id="Fill-27" fill="#32B478"></path>
                    <path d="M24.7073167,13.048 C24.6699833,13 24.6349833,12.9508571 24.5988167,12.9017143 C24.59765,12.9005714 24.5964833,12.9005714 24.5953167,12.9005714 C24.4973167,12.8811429 24.4004833,12.856 24.30715,12.8285714 C24.2173167,12.8011429 24.1298167,12.7714286 24.0469833,12.7382857 C23.82415,12.648 23.6293167,12.5371429 23.4753167,12.408 C23.3644833,12.3142857 23.27465,12.2137143 23.2128167,12.104 C23.2023167,12.0857143 23.1929833,12.0685714 23.18365,12.0502857 C23.2443167,12.0102857 23.3049833,11.9691429 23.3679833,11.9257143 C23.4228167,11.8868571 23.4799833,11.8468571 23.5383167,11.8057143 C23.6269833,11.744 23.7168167,11.68 23.8089833,11.6102857 C23.8159833,11.6057143 23.82415,11.5988571 23.83115,11.5954286 C23.7343167,11.3862857 23.64565,11.1725714 23.5674833,10.9554286 C23.5114833,10.7954286 23.4589833,10.6331429 23.4123167,10.4685714 C23.1848167,10.6628571 22.9398167,10.8548571 22.67615,11.0422857 C22.5664833,10.8582857 22.4544833,10.5051429 22.3669833,10.0445714 C22.30515,9.71885714 22.2549833,9.33714286 22.22465,8.92457143 C22.2153167,8.808 22.2094833,8.69028571 22.20365,8.56914286 C22.2024833,8.52114286 22.2013167,8.47314286 22.1989833,8.424 C21.9119833,8.55885714 21.6343167,8.71314286 21.3694833,8.88228571 C21.1384833,9.03085714 20.9179833,9.19085714 20.7068167,9.36342857 C20.71265,9.40457143 20.7173167,9.44571429 20.7219833,9.48685714 C20.72665,9.52114286 20.73015,9.55314286 20.7348167,9.58857143 C20.7359833,9.59771429 20.73715,9.608 20.7394833,9.61828571 C20.7803167,9.92914286 20.83165,10.2205714 20.89465,10.496 C20.9214833,10.6148571 20.9518167,10.7314286 20.9844833,10.8434286 C20.9903167,10.8651429 20.99615,10.8857143 21.0019833,10.9062857 C21.0894833,11.2022857 21.1944833,11.4754286 21.3193167,11.7291429 C21.2679833,11.7485714 21.19215,11.7737143 21.0999833,11.7965714 C20.7453167,11.8868571 20.1293167,11.9645714 19.5879833,11.7211429 C19.3908167,11.6331429 19.2053167,11.5017143 19.0443167,11.3154286 C18.81565,11.712 18.6254833,12.1314286 18.4773167,12.5714286 C19.5658167,13.6662857 21.13965,13.2354286 21.8209833,12.7942857 C21.84315,12.7805714 21.8653167,12.7657143 21.88515,12.752 C21.9213167,12.7268571 21.95515,12.7005714 21.9854833,12.6754286 C22.0403167,12.7348571 22.0974833,12.7908571 22.15465,12.8468571 C22.4824833,13.1634286 22.85115,13.4182857 23.24315,13.6125714 C23.65615,13.8171429 24.0959833,13.9531429 24.54515,14.0171429 C24.5824833,14.0228571 24.61865,14.0262857 24.6559833,14.0308571 C24.8053167,14.0491429 24.9558167,14.0582857 25.1063167,14.0594286 C25.26965,14.0617143 25.4353167,14.0537143 25.59865,14.0354286 C25.2743167,13.7325714 24.9768167,13.4022857 24.7073167,13.048" id="Fill-29" fill="#1EA0AA"></path>
                </g>
            </g>
        </g>
    </g>
</svg>