<?xml version="1.0" encoding="UTF-8"?>
<svg width="15px" height="16px" viewBox="0 0 15 16" version="1.1" xmlns="http://www.w3.org/2000/svg" xmlns:xlink="http://www.w3.org/1999/xlink">
    <!-- Generator: Sketch 48.1 (47250) - http://www.bohemiancoding.com/sketch -->
    <title>Alert@2x</title>
    <desc>Created with Sketch.</desc>
    <defs></defs>
    <g id="header" stroke="none" stroke-width="1" fill="none" fill-rule="evenodd" transform="translate(-625.000000, -13.000000)">
        <g id="Group-20" fill="#FFFFFF">
            <g id="Group-18" transform="translate(425.000000, 8.000000)">
                <g id="Group-4" transform="translate(0.000000, 2.000000)">
                    <g id="Group-14" transform="translate(174.000000, 0.000000)">
                        <g id="Glyphs-/-Mail-/-Alert" transform="translate(23.000000, 0.000000)">
                            <path d="M9.25,17.7368421 L10.0833333,17.7368421 L10.9166667,17.7368421 L11.75,17.7368421 C11.75,18.0604632 11.6295833,18.3554526 11.4318333,18.5789474 C11.2027167,18.8373895 10.8702833,19 10.5,19 C10.1297167,19 9.79728333,18.8373895 9.5682,18.5789474 C9.37044167,18.3554526 9.25,18.0604632 9.25,17.7368421 Z M3.41666667,17.3157895 C3.18654833,17.3157895 3,17.1272421 3,16.8947368 L3,16.3702737 C3,16.1822316 3.12422417,16.0190316 3.29880667,15.9541053 C4.87949167,15.3658947 5.96971667,13.8690526 6.037925,12.1476211 L6.200275,8.04996211 C6.27433333,6.16981895 7.80468333,4.68421053 9.66666667,4.68421053 L9.66666667,3.84210526 C9.66666667,3.377056 10.0397917,3 10.5,3 C10.9602083,3 11.3333333,3.377056 11.3333333,3.84210526 L11.3333333,4.68421053 C13.1953333,4.68421053 14.7256667,6.16981895 14.79975,8.04996211 L14.9620833,12.1476211 C15.03025,13.8690526 16.1205,15.3658947 17.7011667,15.9541053 C17.87575,16.0190316 18,16.1822316 18,16.3702737 L18,16.8947368 C18,17.1272421 17.8134167,17.3157895 17.5833333,17.3157895 L3.41666667,17.3157895 Z" id="Alert"></path>
                        </g>
                    </g>
                </g>
            </g>
        </g>
    </g>
</svg>