<?xml version="1.0" encoding="UTF-8"?>
<svg width="16px" height="14px" viewBox="0 0 16 14" version="1.1" xmlns="http://www.w3.org/2000/svg" xmlns:xlink="http://www.w3.org/1999/xlink">
    <!-- Generator: Sketch 48.1 (47250) - http://www.bohemiancoding.com/sketch -->
    <title>Page 1@2x</title>
    <desc>Created with Sketch.</desc>
    <defs></defs>
    <g id="header" stroke="none" stroke-width="1" fill="none" fill-rule="evenodd" transform="translate(-769.000000, -14.000000)">
        <g id="Group-20" fill="#FFFFFF">
            <g id="Group-18" transform="translate(425.000000, 8.000000)">
                <g id="Group-9" transform="translate(344.000000, 6.000000)">
                    <g id="Page-1">
                        <path d="M0.466256754,14 C0.208682691,14 0,13.7890353 0,13.5293865 C0,13.2697377 0.208682691,13.0593741 0.466256754,13.0593741 L15.533147,13.0593741 C15.7913173,13.0593741 16,13.2697377 16,13.5293865 C16,13.7890353 15.7913173,14 15.533147,14 L0.466256754,14 Z M8.50531023,0.9400249 C8.24773617,0.9400249 8.03905347,0.730262311 8.03905347,0.47001245 C8.03905347,0.210964667 8.24773617,0 8.50531023,0 L15.533147,0 C15.7913173,0 16,0.210964667 16,0.47001245 C16,0.730262311 15.7913173,0.9400249 15.533147,0.9400249 L8.50531023,0.9400249 Z M8.50531023,4.10629803 C8.24773617,4.10629803 8.03905347,3.89533336 8.03905347,3.63568454 C8.03905347,3.37603572 8.24773617,3.16567209 8.50531023,3.16567209 L15.533147,3.16567209 C15.7913173,3.16567209 16,3.37603572 16,3.63568454 C16,3.89533336 15.7913173,4.10629803 15.533147,4.10629803 L8.50531023,4.10629803 Z M8.50531023,7.47031297 C8.24773617,7.47031297 8.03905347,7.2593483 8.03905347,7.00030052 C8.03905347,6.74005066 8.24773617,6.52968703 8.50531023,6.52968703 L15.533147,6.52968703 C15.7913173,6.52968703 16,6.74005066 16,7.00030052 C16,7.2593483 15.7913173,7.47031297 15.533147,7.47031297 L8.50531023,7.47031297 Z M4.95710825,4.34851672 L3.58039873,0.9400249 L3.27154835,0.9400249 L1.97413825,4.34851672 L4.95710825,4.34851672 Z M0.901509223,7.16678831 C0.810285075,7.409007 0.540786287,7.5310179 0.300503074,7.43905894 C0.0602198621,7.34649895 -0.0608160984,7.07543039 0.0310042854,6.83261066 L0.852021614,4.67367879 C0.85738774,4.65865281 0.863350102,4.64422788 0.869312465,4.62920191 L2.51552078,0.302923625 C2.58647289,0.115399476 2.76355506,0.000601038939 2.95077324,0.000601038939 L3.89342277,0 C4.09793181,0 4.27143656,0.132829605 4.3346376,0.316747521 L6.96225079,6.82419611 C7.05884107,7.06401065 6.94376747,7.3380844 6.70527296,7.43545271 C6.46677846,7.53221998 6.19489473,7.4168205 6.09890069,7.17580389 L5.33631451,5.2897437 L1.6163965,5.2897437 L0.901509223,7.16678831 Z M0.466256754,10.8337269 C0.208682691,10.8337269 0,10.6239643 0,10.3637144 C0,10.1046666 0.208682691,9.89370197 0.466256754,9.89370197 L15.533147,9.89370197 C15.7913173,9.89370197 16,10.1046666 16,10.3637144 C16,10.6239643 15.7913173,10.8337269 15.533147,10.8337269 L0.466256754,10.8337269 Z" id="Fill-1"></path>
                    </g>
                </g>
            </g>
        </g>
    </g>
</svg>